<?xml version="1.0" encoding="utf-8"?>
<!-- Generator: Adobe Illustrator 22.1.0, SVG Export Plug-In . SVG Version: 6.00 Build 0)  -->
<svg xmlns="http://www.w3.org/2000/svg" xmlns:xlink="http://www.w3.org/1999/xlink" version="1.1" id="Layer_1" x="0px" y="0px" viewBox="0 0 256 256" style="enable-background:new 0 0 256 256;" xml:space="preserve" width="512" height="512">
<style type="text/css">
	.st0{fill:#FFDF74;}
	.st1{fill:#FCE575;}
	.st2{fill:#FFD551;}
	.st3{fill:#F9BB32;}
	.st4{fill:#FFF4C1;}
	.st5{fill:#DB9C2E;}
	.st6{fill:#FFC34C;}
	.st7{fill:#FFEA63;}
	.st8{fill:#A56021;}
	.st9{fill:#E58D23;}
	.st10{fill:#CCC033;}
	.st11{fill:#99AF17;}
	.st12{fill:#FCDA4F;}
	.st13{fill:#8C4C17;}
	.st14{fill:#BF6C0D;}
	.st15{fill:#FFA730;}
	.st16{fill:#FF624B;}
	.st17{fill:#FCF9DE;}
	.st18{fill:#FFEACF;}
	.st19{fill:#FFD59A;}
	.st20{fill:#EACF32;}
	.st21{fill:#FF4B34;}
	.st22{fill:#FF9079;}
	.st23{fill:#FFB74B;}
</style>
<g>
	<g>
		<path class="st4" d="M239.478,209.996H16.144c-4.412,0-7.988-3.577-7.988-7.989V19.021c0-4.412,3.577-7.988,7.988-7.988h223.333    c4.412,0,7.988,3.577,7.988,7.988v182.987C247.466,206.419,243.889,209.996,239.478,209.996z"/>
	</g>
	<g>
		<path class="st17" d="M239.466,166.326C239.466,166.326,239.466,166.326,239.466,166.326c-1.657,0-3-1.343-3-3l0.012-104.706    c0-1.657,1.343-3,3-3c0,0,0,0,0,0c1.657,0,3,1.343,3,3l-0.012,104.706C242.466,164.983,241.123,166.326,239.466,166.326z"/>
	</g>
	<g>
		<path class="st1" d="M36.156,202.007V19.021c0-4.412,3.577-7.989,7.989-7.989h-28c-4.412,0-7.989,3.577-7.989,7.989v182.986    c0,4.412,3.577,7.989,7.989,7.989h28C39.732,209.996,36.156,206.419,36.156,202.007z"/>
	</g>
	<g>
		<path class="st6" d="M239.811,210.169h-224c-4.418,0-8-3.582-8-8v-33.451h240v33.451    C247.811,206.587,244.229,210.169,239.811,210.169z"/>
	</g>
	<g>
		<path class="st16" d="M247.466,52.483H8.156V19.032c0-4.418,3.582-8,8-8h223.31c4.418,0,8,3.582,8,8V52.483z"/>
	</g>
	<g>
		<path class="st21" d="M44.156,11.032h-28c-4.418,0-8,3.582-8,8v33.451h28V19.032C36.156,14.614,39.737,11.032,44.156,11.032z"/>
	</g>
	<g>
		<path class="st23" d="M8.156,168.718v33.29c0,4.412,3.577,7.989,7.989,7.989h28c-4.412,0-7.989-3.577-7.989-7.989v-33.29H8.156z"/>
	</g>
	<g>
		<path class="st16" d="M102.21,90.738v40.588c0,3.965,4.236,6.49,7.724,4.605l40.042-21.647c3.773-2.04,3.626-7.503-0.251-9.337    l-40.042-18.941C106.211,84.363,102.21,86.896,102.21,90.738z"/>
	</g>
	<g>
		<path class="st13" d="M28.156,200.179c-2.209,0-4-1.791-4-4v-13.472c0-2.209,1.791-4,4-4s4,1.791,4,4v13.472    C32.156,198.388,30.365,200.179,28.156,200.179z"/>
	</g>
	<g>
		<path class="st8" d="M39.19,200.179c-2.209,0-4-1.791-4-4v-13.472c0-2.209,1.791-4,4-4s4,1.791,4,4v13.472    C43.19,198.388,41.399,200.179,39.19,200.179z"/>
	</g>
	<g>
		<path class="st16" d="M55.953,182.67l11.501,5.44c1.481,0.701,1.538,2.788,0.096,3.567l-11.501,6.218    c-1.333,0.72-2.951-0.245-2.951-1.759v-11.658C53.098,183.01,54.626,182.042,55.953,182.67z"/>
	</g>
	<g>
		<path class="st9" d="M77.923,197.107v-13.601c0-1.105,0.895-2,2-2h13.578c1.105,0,2,0.895,2,2v13.601c0,1.105-0.895,2-2,2H79.923    C78.818,199.107,77.923,198.212,77.923,197.107z"/>
	</g>
	<g>
		<path class="st2" d="M227.116,193.416H110.402c-1.717,0-3.109-1.392-3.109-3.109v0c0-1.717,1.392-3.109,3.109-3.109h116.713    c1.717,0,3.109,1.392,3.109,3.109v0C230.225,192.024,228.833,193.416,227.116,193.416z"/>
	</g>
	<g>
		<path class="st2" d="M173.347,40.967h-12.668c-1.749,0-3.167-1.418-3.167-3.167V25.131c0-1.749,1.418-3.167,3.167-3.167h12.668    c1.749,0,3.167,1.418,3.167,3.167V37.8C176.514,39.549,175.096,40.967,173.347,40.967z"/>
	</g>
	<g>
		<path class="st2" d="M204.662,40.967h-12.668c-1.749,0-3.167-1.418-3.167-3.167V25.131c0-1.749,1.418-3.167,3.167-3.167h12.668    c1.749,0,3.167,1.418,3.167,3.167V37.8C207.829,39.549,206.411,40.967,204.662,40.967z"/>
	</g>
	<g>
		<path class="st2" d="M235.977,40.967h-12.668c-1.749,0-3.167-1.418-3.167-3.167V25.131c0-1.749,1.418-3.167,3.167-3.167h12.668    c1.749,0,3.167,1.418,3.167,3.167V37.8C239.144,39.549,237.726,40.967,235.977,40.967z"/>
	</g>
	<g>
		<path class="st9" d="M133.294,190.307c0-1.717,1.392-3.108,3.109-3.108h-26c-1.717,0-3.109,1.392-3.109,3.108    c0,1.717,1.392,3.109,3.109,3.109h26C134.685,193.415,133.294,192.024,133.294,190.307z"/>
	</g>
	<g>
		<path class="st8" d="M134.535,198.37L134.535,198.37c-1.619,0-2.931-1.312-2.931-2.931v-10.265c0-1.619,1.312-2.931,2.931-2.931h0    c1.619,0,2.931,1.312,2.931,2.931v10.265C137.466,197.058,136.154,198.37,134.535,198.37z"/>
	</g>
	<g>
		<ellipse class="st10" cx="205.249" cy="201.973" rx="42.94" ry="42.995"/>
	</g>
	<g>
		<path class="st11" d="M194.885,232.375c-16.769-16.791-16.769-44.014,0-60.805c5.822-5.83,12.901-9.63,20.363-11.412    c-14.03-3.35-29.416,0.451-40.363,11.412c-16.769,16.791-16.769,44.014,0,60.805c10.947,10.961,26.333,14.762,40.363,11.412    C207.787,242.005,200.708,238.205,194.885,232.375z"/>
	</g>
	<g>
		<path class="st12" d="M205.249,239.968c-10.133,0-19.66-3.951-26.826-11.126c-14.796-14.816-14.796-38.923,0-53.738    c7.166-7.175,16.693-11.126,26.826-11.126c10.133,0,19.66,3.951,26.826,11.126c14.796,14.815,14.796,38.922,0,53.738    C224.909,236.016,215.382,239.968,205.249,239.968z"/>
	</g>
	<g>
		<path class="st2" d="M205.171,163.979c-10.104,0.02-19.601,3.968-26.749,11.124c-14.796,14.815-14.796,38.922,0,53.738    c7.148,7.156,16.644,11.104,26.749,11.124c-3.696-1.958-7.174-4.475-10.286-7.591c-16.769-16.791-16.769-44.014,0-60.805    C197.997,168.455,201.475,165.937,205.171,163.979z"/>
	</g>
	<g>
		<path class="st3" d="M229.888,196.439h-5.876c0.322,1.083,0,0,0,0c-0.014-0.048-0.03-0.096-0.045-0.145h0.001    c-0.016-0.054-0.035-0.107-0.051-0.161c-0.026-0.081-0.051-0.162-0.078-0.243c-0.027-0.082-0.056-0.164-0.084-0.246    c-0.026-0.074-0.051-0.148-0.077-0.222c-0.03-0.084-0.061-0.167-0.092-0.25c-0.027-0.073-0.054-0.145-0.082-0.218    c-0.031-0.08-0.064-0.16-0.096-0.24c-0.03-0.075-0.06-0.15-0.092-0.225c-0.032-0.076-0.065-0.151-0.097-0.226    c-0.034-0.078-0.067-0.156-0.102-0.233c-0.033-0.072-0.066-0.144-0.1-0.216c-0.037-0.079-0.073-0.158-0.111-0.236    c-0.035-0.072-0.07-0.144-0.106-0.215c-0.038-0.076-0.076-0.153-0.114-0.228c-0.04-0.077-0.081-0.154-0.121-0.231    c-0.026-0.048-0.05-0.097-0.076-0.145l-0.001,0.001c-0.024-0.044-0.047-0.089-0.071-0.134c-0.22-0.398-0.22-0.398,0,0l4.123-4.187    c0.715-0.726,0.706-1.894-0.02-2.609l-5.258-5.177c-0.726-0.715-1.894-0.706-2.609,0.02l-4.123,4.188c0.402,0.213,0.402,0.213,0,0    c-0.047-0.025-0.303-0.157-0.385-0.198c-0.065-0.033-0.364-0.179-0.45-0.219c-0.066-0.031-0.367-0.168-0.45-0.205    c-0.072-0.032-1.554-0.604-1.643-0.634c-0.069-0.023-0.138-0.046-0.207-0.068c-0.087-0.028-0.174-0.055-0.261-0.082    c-0.051-0.015-0.207-0.064-0.151-0.047v-5.876c0-0.959-0.733-1.747-1.669-1.836c-0.123-0.025-0.251-0.038-0.381-0.037    l-3.588,0.028h-3.586c-0.131,0-0.258,0.014-0.381,0.04c-0.935,0.096-1.662,0.889-1.654,1.849l0.046,5.876    c-0.051,0.015-0.101,0.033-0.152,0.049c-0.086,0.027-0.172,0.054-0.258,0.082c-0.079,0.026-0.158,0.054-0.237,0.081    c-0.078,0.027-0.156,0.054-0.233,0.081c-0.081,0.029-0.163,0.06-0.244,0.09c-0.076,0.028-0.151,0.057-0.227,0.086    c-0.08,0.031-0.16,0.064-0.24,0.096c-0.076,0.031-0.152,0.061-0.228,0.093c-0.077,0.032-0.154,0.066-0.231,0.1    c-0.077,0.034-0.154,0.067-0.231,0.102c-0.075,0.034-0.15,0.069-0.225,0.104c-0.077,0.036-0.154,0.072-0.23,0.109    c-0.075,0.036-0.15,0.074-0.225,0.111c-0.074,0.037-0.147,0.074-0.221,0.111c-0.079,0.041-0.158,0.082-0.236,0.124    c-0.039,0.021-0.079,0.041-0.118,0.062l-4.155-4.155c-0.678-0.678-1.753-0.717-2.478-0.118c-0.105,0.07-0.204,0.15-0.296,0.244    l-2.516,2.555l-2.537,2.537c-0.092,0.092-0.173,0.192-0.241,0.298c-0.593,0.729-0.546,1.804,0.138,2.477l4.188,4.123    c0.005-0.009,0.009-0.016,0.013-0.024c-0.008,0.015-0.013,0.024-0.013,0.024c-0.026,0.05-0.051,0.1-0.077,0.15    c-0.041,0.079-0.082,0.157-0.121,0.236c-0.034,0.067-0.067,0.135-0.1,0.203c-0.041,0.083-0.081,0.167-0.121,0.251    c-0.032,0.068-0.063,0.136-0.094,0.205c-0.038,0.083-0.076,0.167-0.113,0.251c-0.032,0.072-0.062,0.145-0.093,0.218    c-0.034,0.08-0.068,0.16-0.101,0.241c-0.032,0.078-0.063,0.157-0.094,0.236c-0.03,0.076-0.06,0.151-0.089,0.228    c-0.032,0.085-0.063,0.17-0.093,0.254c-0.026,0.072-0.053,0.144-0.078,0.216c-0.031,0.087-0.06,0.175-0.089,0.263    c-0.024,0.072-0.048,0.144-0.071,0.216c-0.027,0.084-0.052,0.168-0.078,0.252c-0.019,0.064-0.04,0.127-0.059,0.19    c0.006-0.021,0.011-0.042,0.018-0.063h-5.875c-1.019,0-1.845,0.826-1.845,1.845v7.379c0,1.019,0.826,1.845,1.845,1.845h5.876    c-0.003-0.009-0.005-0.017-0.008-0.026c0.005,0.017,0.008,0.026,0.008,0.026c0.014,0.048,0.03,0.096,0.045,0.145h-0.001    c0.016,0.054,0.034,0.107,0.051,0.16c0.026,0.081,0.051,0.162,0.078,0.243c0.027,0.082,0.055,0.164,0.084,0.246    c0.026,0.074,0.051,0.148,0.077,0.222c0.03,0.083,0.061,0.167,0.092,0.25c0.027,0.073,0.054,0.146,0.082,0.218    c0.031,0.08,0.064,0.16,0.096,0.24c0.03,0.075,0.061,0.151,0.092,0.225c0.032,0.075,0.064,0.15,0.097,0.225    c0.034,0.078,0.068,0.157,0.103,0.234c0.032,0.072,0.066,0.144,0.1,0.216c0.037,0.079,0.073,0.158,0.111,0.236    c0.035,0.072,0.07,0.144,0.106,0.215c0.038,0.076,0.076,0.153,0.115,0.228c0.04,0.077,0.08,0.154,0.121,0.23    c0.026,0.048,0.05,0.097,0.076,0.146l0.001-0.001c0.024,0.044,0.047,0.089,0.071,0.134c0.22,0.398,0.22,0.398,0,0l-4.123,4.187    c-0.715,0.726-0.706,1.894,0.02,2.609l5.258,5.177c0.726,0.715,1.894,0.706,2.609-0.02c0,0,3.721-4.401,4.123-4.188    c0.047,0.025,0.094,0.048,0.141,0.072c0.081,0.042,0.162,0.084,0.243,0.125c0.065,0.033,0.13,0.065,0.196,0.096    c0.084,0.041,0.169,0.082,0.253,0.122c0.067,0.031,0.134,0.062,0.202,0.093c0.083,0.038,0.166,0.076,0.249,0.112    c0.072,0.032,0.145,0.063,0.217,0.093c0.079,0.033,0.157,0.067,0.236,0.099c0.079,0.032,0.158,0.064,0.237,0.095    c0.073,0.029,0.147,0.058,0.221,0.086c0.086,0.033,0.172,0.064,0.258,0.095c0.069,0.025,0.137,0.05,0.207,0.074    c0.089,0.031,0.179,0.061,0.269,0.091c0.068,0.023,0.137,0.046,0.206,0.068c0.087,0.028,0.175,0.055,0.262,0.082    c0.05,0.015,0.1,0.032,0.151,0.047c0.056,0.017,0.104,0.031,0.145,0.043l0,0c-0.041-0.012-0.089-0.027-0.145-0.043v5.876    c0,0.959,0.732,1.747,1.669,1.836c0.123,0.025,0.251,0.038,0.381,0.037l3.588-0.028h3.586c0.131,0,0.258-0.014,0.381-0.04    c0.935-0.096,1.662-0.889,1.654-1.849l-0.046-5.876c0.051-0.015,0.101-0.033,0.152-0.049c0.086-0.027,0.172-0.054,0.258-0.082    c0.079-0.026,0.158-0.053,0.237-0.081c0.078-0.027,0.156-0.054,0.234-0.082c0.081-0.029,0.162-0.06,0.243-0.09    c0.076-0.029,0.152-0.057,0.227-0.086c0.08-0.031,0.159-0.063,0.238-0.095c0.077-0.031,0.153-0.062,0.23-0.094    c0.076-0.032,0.153-0.065,0.229-0.098c0.078-0.034,0.156-0.068,0.234-0.103c0.074-0.034,0.148-0.068,0.222-0.103    c0.078-0.036,0.156-0.073,0.233-0.11c0.074-0.036,0.149-0.073,0.223-0.11c0.075-0.037,0.149-0.075,0.223-0.113    c0.078-0.04,0.156-0.081,0.234-0.123c0.04-0.021,0.08-0.041,0.12-0.063l4.155,4.155c0.678,0.678,1.753,0.717,2.478,0.118    c0.105-0.07,0.204-0.15,0.296-0.244l2.516-2.555l2.537-2.537c0.092-0.092,0.173-0.192,0.241-0.298    c0.593-0.729,0.546-1.804-0.138-2.477l-4.188-4.123c-0.025,0.048-0.048,0.091-0.071,0.134l0,0c0.024-0.044,0.047-0.09,0.07-0.134    l0.001,0.001c0.026-0.05,0.051-0.1,0.077-0.15c0.041-0.079,0.082-0.157,0.122-0.236c0.034-0.067,0.067-0.135,0.1-0.203    c0.041-0.083,0.081-0.167,0.121-0.251c0.032-0.068,0.063-0.136,0.094-0.205c0.038-0.083,0.076-0.167,0.113-0.251    c0.032-0.072,0.062-0.144,0.093-0.217c0.034-0.081,0.069-0.161,0.102-0.243c0.032-0.078,0.062-0.156,0.093-0.235    c0.03-0.076,0.06-0.152,0.089-0.229c0.032-0.084,0.062-0.169,0.093-0.254c0.026-0.072,0.053-0.144,0.078-0.217    c0.03-0.087,0.059-0.175,0.089-0.263c0.024-0.072,0.048-0.144,0.072-0.216c0.027-0.084,0.052-0.168,0.078-0.252    c0.019-0.064,0.04-0.127,0.059-0.19c-0.006,0.021-0.011,0.042-0.018,0.063h5.875c1.019,0,1.845-0.826,1.845-1.845v-7.379    C231.733,197.265,230.907,196.439,229.888,196.439z M216.866,205.288c-0.045,0.155-0.094,0.308-0.144,0.461    c-0.015,0.046-0.03,0.091-0.046,0.137c-0.041,0.118-0.085,0.235-0.13,0.352c-0.031,0.081-0.063,0.162-0.095,0.242    c-0.033,0.08-0.067,0.16-0.102,0.239c-0.05,0.115-0.101,0.229-0.155,0.342c-0.021,0.044-0.042,0.087-0.063,0.131    c-0.071,0.144-0.144,0.288-0.22,0.429c-0.006,0.012-0.013,0.023-0.019,0.035c-1.257,2.301-3.254,4.142-5.667,5.205    c-0.061,0.027-0.122,0.056-0.183,0.081c-0.061,0.026-0.124,0.049-0.186,0.073c-2.451,0.974-5.164,1.106-7.686,0.387    c-0.012-0.004-0.025-0.007-0.037-0.01c-0.154-0.045-0.308-0.094-0.461-0.144c-0.046-0.015-0.092-0.031-0.137-0.046    c-0.118-0.041-0.235-0.085-0.352-0.13c-0.081-0.031-0.162-0.063-0.242-0.096c-0.08-0.033-0.159-0.067-0.239-0.101    c-0.115-0.05-0.229-0.101-0.342-0.155c-0.044-0.021-0.087-0.042-0.131-0.063c-0.145-0.071-0.288-0.144-0.429-0.22    c-0.011-0.006-0.023-0.012-0.034-0.019c-2.302-1.257-4.142-3.254-5.205-5.668c-0.027-0.061-0.055-0.121-0.081-0.182    c-0.026-0.062-0.049-0.124-0.074-0.187c-0.974-2.451-1.106-5.163-0.387-7.686c0.004-0.012,0.007-0.025,0.011-0.037    c0.045-0.154,0.093-0.308,0.144-0.461c0.015-0.046,0.031-0.092,0.046-0.137c0.041-0.118,0.085-0.235,0.13-0.352    c0.031-0.081,0.063-0.162,0.096-0.242c0.033-0.08,0.067-0.159,0.101-0.239c0.05-0.115,0.101-0.229,0.155-0.342    c0.021-0.044,0.042-0.087,0.063-0.13c0.071-0.145,0.144-0.288,0.22-0.429c0.006-0.012,0.013-0.023,0.019-0.034    c1.257-2.302,3.254-4.142,5.668-5.205c0.061-0.027,0.121-0.055,0.182-0.081c0.062-0.026,0.125-0.049,0.187-0.074    c2.451-0.974,5.163-1.106,7.685-0.387c0.012,0.004,0.025,0.007,0.038,0.011c0.154,0.045,0.307,0.093,0.46,0.144    c0.046,0.015,0.092,0.031,0.138,0.047c0.118,0.041,0.235,0.085,0.352,0.129c0.081,0.031,0.162,0.063,0.242,0.096    c0.08,0.033,0.16,0.067,0.239,0.102c0.115,0.05,0.229,0.101,0.342,0.155c0.044,0.02,0.087,0.042,0.13,0.063    c0.145,0.071,0.288,0.144,0.43,0.22c0.011,0.006,0.022,0.012,0.034,0.018c2.302,1.257,4.142,3.254,5.205,5.668    c0.027,0.061,0.055,0.122,0.081,0.183c0.026,0.061,0.049,0.124,0.073,0.186c0.974,2.451,1.106,5.164,0.387,7.686    C216.873,205.263,216.869,205.276,216.866,205.288z"/>
	</g>
	<g>
		<path class="st5" d="M187.743,218.116c-0.726-0.715-0.735-1.883-0.02-2.609l4.123-4.187c-0.024-0.044-0.047-0.089-0.071-0.134    l-0.001,0.001c-0.026-0.048-0.051-0.097-0.076-0.146c-0.041-0.077-0.081-0.153-0.121-0.23c-0.039-0.076-0.077-0.152-0.115-0.228    c-0.036-0.072-0.071-0.143-0.106-0.215c-0.038-0.078-0.074-0.157-0.111-0.236c-0.033-0.072-0.067-0.144-0.099-0.216    c-0.035-0.078-0.069-0.156-0.103-0.234c-0.033-0.075-0.065-0.15-0.097-0.225c-0.031-0.075-0.061-0.15-0.092-0.225    c-0.032-0.08-0.065-0.16-0.096-0.24c-0.028-0.072-0.055-0.145-0.082-0.218c-0.031-0.083-0.062-0.166-0.092-0.25    c-0.027-0.074-0.052-0.148-0.077-0.222c-0.028-0.082-0.057-0.164-0.084-0.246c-0.027-0.081-0.052-0.162-0.078-0.243    c-0.017-0.053-0.035-0.107-0.051-0.16h0.001c-0.015-0.048-0.031-0.096-0.045-0.145h-3.366c0.014,0.048,0.03,0.096,0.045,0.145    h-0.001c0.016,0.054,0.034,0.107,0.051,0.16c0.026,0.081,0.051,0.162,0.078,0.243c0.027,0.082,0.055,0.164,0.084,0.246    c0.026,0.074,0.051,0.148,0.077,0.222c0.03,0.084,0.061,0.167,0.092,0.25c0.027,0.073,0.054,0.146,0.082,0.218    c0.031,0.08,0.064,0.16,0.096,0.24c0.03,0.075,0.061,0.151,0.092,0.225c0.032,0.075,0.064,0.15,0.097,0.225    c0.034,0.078,0.068,0.157,0.103,0.234c0.032,0.072,0.066,0.144,0.099,0.216c0.037,0.079,0.073,0.158,0.111,0.236    c0.035,0.072,0.07,0.144,0.106,0.215c0.038,0.076,0.076,0.153,0.115,0.228c0.04,0.077,0.08,0.154,0.121,0.23    c0.026,0.048,0.05,0.098,0.076,0.146l0.001-0.001c0.024,0.044,0.047,0.089,0.071,0.134c0.22,0.398,0.22,0.398,0,0l-4.123,4.187    c-0.715,0.726-0.706,1.894,0.02,2.609l5.258,5.177c0.726,0.715,1.894,0.706,2.609-0.02c0,0,0.127-0.151,0.337-0.394    L187.743,218.116z"/>
	</g>
	<g>
		<path class="st5" d="M188.335,192.891c0.005-0.009,0.009-0.016,0.013-0.024C188.34,192.882,188.335,192.891,188.335,192.891    c-0.027,0.05-0.051,0.1-0.077,0.15c-0.041,0.079-0.082,0.157-0.122,0.236c-0.034,0.067-0.067,0.135-0.1,0.203    c-0.041,0.083-0.081,0.167-0.121,0.251c-0.032,0.068-0.063,0.136-0.094,0.205c-0.038,0.083-0.076,0.167-0.113,0.251    c-0.032,0.072-0.062,0.145-0.093,0.218c-0.034,0.08-0.068,0.16-0.101,0.241c-0.032,0.079-0.063,0.157-0.094,0.236    c-0.03,0.076-0.06,0.151-0.089,0.228c-0.032,0.085-0.063,0.17-0.093,0.254c-0.026,0.072-0.053,0.144-0.078,0.216    c-0.031,0.087-0.06,0.175-0.089,0.263c-0.024,0.072-0.048,0.144-0.071,0.216c-0.027,0.084-0.052,0.168-0.078,0.252    c-0.013,0.042-0.026,0.085-0.039,0.127h3.364c-0.006,0.021-0.011,0.042-0.018,0.063c0.019-0.064,0.039-0.127,0.059-0.19    c0.026-0.084,0.051-0.168,0.078-0.252c0.023-0.072,0.048-0.144,0.071-0.216c0.029-0.088,0.058-0.176,0.089-0.263    c0.025-0.072,0.052-0.144,0.078-0.216c0.031-0.085,0.061-0.17,0.093-0.254c0.029-0.076,0.059-0.152,0.089-0.228    c0.031-0.079,0.062-0.158,0.094-0.236c0.033-0.081,0.067-0.161,0.101-0.241c0.031-0.073,0.062-0.145,0.093-0.218    c0.037-0.084,0.075-0.167,0.113-0.251c0.031-0.068,0.062-0.137,0.094-0.205c0.04-0.084,0.08-0.167,0.121-0.251    c0.033-0.068,0.066-0.136,0.1-0.203c0.04-0.079,0.081-0.158,0.122-0.236c0.026-0.05,0.051-0.1,0.077-0.15l-4.188-4.123    c-0.684-0.673-0.731-1.748-0.138-2.477c0.069-0.105,0.149-0.205,0.241-0.298l2.537-2.537l2.284-2.32l-0.361-0.361    c-0.678-0.678-1.753-0.717-2.478-0.118c-0.105,0.07-0.204,0.15-0.296,0.244l-2.516,2.555l-2.537,2.537    c-0.092,0.092-0.173,0.192-0.241,0.298c-0.593,0.729-0.546,1.804,0.138,2.477L188.335,192.891z"/>
	</g>
	<g>
		<path class="st5" d="M182.527,205.662v-7.379c0-1.019,0.826-1.845,1.845-1.845h-3.366c-1.019,0-1.845,0.826-1.845,1.845v7.379    c0,1.019,0.826,1.845,1.845,1.845h3.366C183.353,207.507,182.527,206.681,182.527,205.662z"/>
	</g>
	<g>
		<path class="st5" d="M199.831,183.471c0,0,0.001,0,0.001,0c0.432-0.129,0.871-0.244,1.315-0.343    c0.006-0.001,0.012-0.003,0.018-0.004c0.438-0.097,0.882-0.179,1.33-0.246c0.017-0.003,0.035-0.005,0.052-0.007    c0.196-0.029,0.394-0.054,0.592-0.076c0.007-0.001,0.014-0.002,0.021-0.002l-0.041-5.191c-0.007-0.958,0.721-1.751,1.659-1.847    c0.123-0.026,0.251-0.04,0.382-0.04h-3.375c-0.131,0-0.259,0.014-0.382,0.04c-0.938,0.096-1.666,0.888-1.659,1.847l0.046,5.87    H199.831z"/>
	</g>
	<g>
		<path class="st5" d="M204.984,228.219c-0.942-0.088-1.679-0.869-1.679-1.821v-5.212c-0.023-0.002-0.046-0.004-0.069-0.006    c-0.034-0.004-0.068-0.008-0.102-0.012c-0.199-0.022-0.397-0.047-0.594-0.076c-0.017-0.003-0.035-0.005-0.053-0.007    c-0.45-0.066-0.895-0.148-1.334-0.244c-0.006-0.001-0.012-0.003-0.018-0.004c-0.356-0.079-0.708-0.169-1.056-0.267l-0.16-0.053    v0.053v0.113v5.715c0,0.951,0.737,1.733,1.679,1.821c0.124,0.025,0.252,0.038,0.384,0.037l3.089-0.024    C205.042,228.227,205.012,228.225,204.984,228.219z"/>
	</g>
</g>
</svg>
