<svg id="Capa_1" enable-background="new 0 0 512 512" height="512" viewBox="0 0 512 512" width="512" xmlns="http://www.w3.org/2000/svg"><g><g><path d="m497 110v292c0 16.57-13.43 30-30 30h-422c-16.57 0-30-13.43-30-30v-292c0-16.57 13.43-30 30-30h422c16.57 0 30 13.43 30 30z" fill="#a592dd"/></g><g><path d="m497 110v292c0 16.57-13.43 30-30 30h-211v-352h211c16.57 0 30 13.43 30 30z" fill="#9b79db"/></g><g><path d="m497 256v146c0 16.57-13.43 30-30 30h-67v-176z" fill="#e0f2fe"/></g><g><path d="m304 256h96v176h-96z" fill="#d0dcfe"/></g><g><path d="m208 256h96v176h-96z" fill="#edffff"/></g><path d="m256 256h48v176h-48z" fill="#e0f2fe"/><g><path d="m112 256h96v176h-96z" fill="#e0f2fe"/></g><g><path d="m112 256v176h-67c-16.57 0-30-13.43-30-30v-146z" fill="#edffff"/></g><g><path d="m129 360h-34c-8.284 0-15-6.716-15-15v-89h64v89c0 8.284-6.716 15-15 15z" fill="#4d5789"/></g><g><path d="m321 360h-34c-8.284 0-15-6.716-15-15v-89h64v89c0 8.284-6.716 15-15 15z" fill="#4d5789"/></g><g><g><path d="m467 65h-422c-24.81 0-45 20.19-45 45v292c0 24.81 20.19 45 45 45h422c24.81 0 45-20.19 45-45v-292c0-24.81-20.19-45-45-45zm15 337c0 8.27-6.73 15-15 15h-422c-8.27 0-15-6.73-15-15v-292c0-8.27 6.73-15 15-15h422c8.27 0 15 6.73 15 15z" fill="#9b79db"/></g></g><g><path d="m512 110v292c0 24.81-20.19 45-45 45h-211v-30h211c8.27 0 15-6.73 15-15v-292c0-8.27-6.73-15-15-15h-211v-30h211c24.81 0 45 20.19 45 45z" fill="#876ace"/></g><path d="m416 216c-22.056 0-40-17.944-40-40s17.944-40 40-40 40 17.944 40 40-17.944 40-40 40z" fill="#f1d0a4"/><path d="m312 216c-22.056 0-40-17.944-40-40s17.944-40 40-40 40 17.944 40 40-17.944 40-40 40z" fill="#ec3c93"/><g><path d="m72 144h128v64h-128z" fill="#edffff"/></g><g><path d="m200 223h-128c-8.284 0-15-6.716-15-15v-64c0-8.284 6.716-15 15-15h128c8.284 0 15 6.716 15 15v64c0 8.284-6.716 15-15 15zm-113-30h98v-34h-98z" fill="#e0f2fe"/></g></g></svg>