<svg id="letters" enable-background="new 0 0 300 300" height="512" viewBox="0 0 300 300" width="512" xmlns="http://www.w3.org/2000/svg"><g><path d="m56 67.326c-7.719 0-14-6.281-14-14s6.281-14 14-14 14 6.281 14 14-6.281 14-14 14zm0-20c-3.309 0-6 2.691-6 6s2.691 6 6 6 6-2.691 6-6-2.691-6-6-6z" fill="#4c241d"/><path d="m226.652 264.674c-1.023 0-2.047-.391-2.828-1.172-1.562-1.562-1.562-4.094 0-5.656l14.695-14.695c1.562-1.562 4.094-1.562 5.656 0s1.562 4.094 0 5.656l-14.695 14.695c-.781.781-1.804 1.172-2.828 1.172z" fill="#4c241d"/><path d="m241.348 264.674c-1.023 0-2.047-.391-2.828-1.172l-14.695-14.695c-1.562-1.562-1.562-4.094 0-5.656s4.094-1.562 5.656 0l14.695 14.695c1.562 1.562 1.562 4.094 0 5.656-.781.781-1.805 1.172-2.828 1.172z" fill="#4c241d"/><circle cx="180" cy="121.326" fill="#e5efef" r="86"/><circle cx="238.001" cy="91.327" fill="#4c241d" r="4"/><circle cx="94.001" cy="259.327" fill="#4c241d" r="4"/><circle cx="46.001" cy="195.327" fill="#4c241d" r="4"/><path d="m146 43.326 29.521 36.729 46.847-5.096-5.097 46.846 36.729 29.521-36.729 29.521 5.097 46.847-46.847-5.097-29.521 36.729-29.521-36.729-46.847 5.097 5.097-46.847-36.729-29.521 36.729-29.521-5.097-46.846 46.847 5.096z" fill="#ffce56"/><g fill="#fc8c29"><path d="m94 103.326c0-8.718.91-17.222 2.621-25.431l-26.989-2.936 5.097 46.846-36.729 29.521 36.729 29.521-5.097 46.846 46.846-5.097 29.522 36.73 29.521-36.729 14.969 1.629c-55.237-12.519-96.49-61.876-96.49-120.9z"/><path d="m218.803 227.306 3.564.388-.052-.477c-1.167.04-2.335.081-3.512.089z"/></g><g fill="#4c241d"><path d="m146 263.326c-1.211 0-2.359-.551-3.117-1.496l-28.148-35.02-44.668 4.859c-1.191.129-2.402-.289-3.262-1.148-.855-.855-1.281-2.055-1.148-3.262l4.859-44.668-35.02-28.148c-.945-.758-1.496-1.906-1.496-3.117s.551-2.359 1.496-3.117l35.02-28.148-4.859-44.668c-.133-1.207.293-2.406 1.148-3.262.855-.859 2.066-1.277 3.262-1.148l44.668 4.859 28.148-35.02c1.516-1.891 4.719-1.891 6.234 0l28.148 35.02 44.668-4.859c1.203-.125 2.406.293 3.262 1.148s1.281 2.055 1.148 3.262l-4.859 44.668 35.02 28.148c.945.758 1.496 1.906 1.496 3.117s-.551 2.359-1.496 3.117l-35.02 28.148 4.859 44.668c.133 1.207-.293 2.406-1.148 3.262-.855.859-2.062 1.27-3.262 1.148l-44.668-4.859-28.148 35.02c-.758.945-1.906 1.496-3.117 1.496zm-29.52-44.73c1.203 0 2.355.543 3.117 1.496l26.403 32.847 26.402-32.848c.852-1.066 2.199-1.625 3.551-1.473l41.898 4.559-4.559-41.898c-.148-1.359.406-2.695 1.473-3.551l32.848-26.402-32.848-26.402c-1.066-.855-1.621-2.191-1.473-3.551l4.559-41.898-41.898 4.559c-1.336.156-2.695-.402-3.551-1.473l-26.402-32.848-26.402 32.848c-.855 1.066-2.215 1.613-3.551 1.473l-41.898-4.559 4.559 41.898c.148 1.359-.406 2.695-1.473 3.551l-32.848 26.402 32.848 26.402c1.066.855 1.621 2.191 1.473 3.551l-4.559 41.898 41.898-4.559c.144-.014.289-.022.433-.022z"/><path d="m118 183.326h-16c-2.211 0-4-1.789-4-4s1.789-4 4-4h12v-56c0-2.211 1.789-4 4-4s4 1.789 4 4v60c0 2.211-1.789 4-4 4z"/><path d="m150 183.326h-16c-2.211 0-4-1.789-4-4s1.789-4 4-4h12v-56c0-2.211 1.789-4 4-4s4 1.789 4 4v60c0 2.211-1.789 4-4 4z"/><path d="m134 147.326c-2.211 0-4-1.789-4-4v-24c0-2.211 1.789-4 4-4s4 1.789 4 4v24c0 2.211-1.789 4-4 4z"/><path d="m202 163.326h-52c-2.211 0-4-1.789-4-4s1.789-4 4-4h42.957c-4.262-3.996-9.887-8-14.957-8-2.211 0-4-1.789-4-4s1.789-4 4-4c13.605 0 25.848 15.797 27.199 17.602.91 1.211 1.055 2.832.379 4.188-.68 1.355-2.062 2.21-3.578 2.21z"/></g></g></svg>