<svg id="flat" height="512" viewBox="0 0 512 512" width="512" xmlns="http://www.w3.org/2000/svg"><path d="m416 208a184 184 0 1 1 -368 0q0-8.08521.69-16a184.00331 184.00331 0 0 1 367.31 16z" fill="#9ce6ed"/><path d="m416 208a183.87154 183.87154 0 0 1 -87.42 156.64014l-40.58-44.64014v-64h-32l-32-48 32-24h40l24-32-16-40 50.05-41.69995a183.56679 183.56679 0 0 1 61.95 137.69995z" fill="#02c26a"/><path d="m296 400h64v80h-64z" fill="#4367e0"/><path d="m360 336h64v144h-64z" fill="#4976f2"/><path d="m424 256h64v224h-64z" fill="#548aff"/><path d="m304.96 39.04-56.96 56.96v48l-48 32-32-32h-40v-32l-37.01-22.21a184.15655 184.15655 0 0 1 213.97-50.75z" fill="#02c26a"/><path d="m208 264-32 24v95.31982a184.0755 184.0755 0 0 1 -128-175.31982q0-8.08521.69-16h47.31l24 32h64z" fill="#02c26a"/><path d="m224 472h272v16h-272z" fill="#a6cfff"/><path d="m104 272c0-8.83656-17.90861-16-40-16s-40 7.16344-40 16v200c0 8.83656 17.90861 16 40 16s40-7.16344 40-16z" fill="#ffc431"/><ellipse cx="64" cy="272" fill="#ffd873" rx="40" ry="16"/><path d="m184 352c0-8.83656-17.90861-16-40-16s-40 7.16344-40 16v120c0 8.83656 17.90861 16 40 16s40-7.16344 40-16z" fill="#ffc431"/><ellipse cx="144" cy="352" fill="#ffd873" rx="40" ry="16"/><path d="m264 392c0-8.83656-17.90861-16-40-16s-40 7.16344-40 16v80c0 8.83656 17.90861 16 40 16s40-7.16344 40-16z" fill="#ffc431"/><ellipse cx="224" cy="392" fill="#ffd873" rx="40" ry="16"/><path d="m98.69893 312c7.75554 0 11.00112 10.006 4.65587 14.46538a39.64639 39.64639 0 0 1 -8.0948 4.27485c-8.48 3.38965-19.58 5.25977-31.26 5.25977s-22.78-1.87012-31.26-5.25977a39.64639 39.64639 0 0 1 -8.09479-4.27485c-6.34521-4.45938-3.09968-14.46538 4.65586-14.46538a7.83073 7.83073 0 0 1 4.45618 1.36347c4.02035 2.77341 14.32033 6.63653 30.24275 6.63653s26.2224-3.86312 30.24273-6.63653a7.83073 7.83073 0 0 1 4.45618-1.36347z" fill="#ffb401"/><path d="m224 336h16v16h-16z" fill="#ffd873"/><path d="m472 160h-32v16h12.686l-160 160h-36.686v16h40a8.00035 8.00035 0 0 0 5.65674-2.34277l162.34326-162.34323v12.686h16v-32a8.00008 8.00008 0 0 0 -8-8z" fill="#ffd873"/><g fill="#ffb401"><path d="m98.69893 352c7.75554 0 11.00112 10.006 4.65587 14.46538a39.64639 39.64639 0 0 1 -8.0948 4.27485c-8.48 3.38965-19.58 5.25977-31.26 5.25977s-22.78-1.87012-31.26-5.25977a39.64639 39.64639 0 0 1 -8.09479-4.27485c-6.34521-4.45938-3.09968-14.46538 4.65586-14.46538a7.83073 7.83073 0 0 1 4.45618 1.36347c4.02035 2.77341 14.32033 6.63653 30.24275 6.63653s26.2224-3.86312 30.24273-6.63653a7.83073 7.83073 0 0 1 4.45618-1.36347z"/><path d="m98.69893 392c7.75554 0 11.00112 10.006 4.65587 14.46538a39.64639 39.64639 0 0 1 -8.0948 4.27485c-8.48 3.38965-19.58 5.25977-31.26 5.25977s-22.78-1.87012-31.26-5.25977a39.64639 39.64639 0 0 1 -8.09479-4.27485c-6.34521-4.45938-3.09968-14.46538 4.65586-14.46538a7.83073 7.83073 0 0 1 4.45618 1.36347c4.02035 2.77341 14.32033 6.63653 30.24275 6.63653s26.2224-3.86312 30.24273-6.63653a7.83073 7.83073 0 0 1 4.45618-1.36347z"/><path d="m98.69893 432c7.75554 0 11.00112 10.006 4.65587 14.46538a39.64639 39.64639 0 0 1 -8.0948 4.27485c-8.48 3.38965-19.58 5.25977-31.26 5.25977s-22.78-1.87012-31.26-5.25977a39.64639 39.64639 0 0 1 -8.09479-4.27485c-6.34521-4.45938-3.09968-14.46538 4.65586-14.46538a7.83073 7.83073 0 0 1 4.45618 1.36347c4.02035 2.77341 14.32033 6.63653 30.24275 6.63653s26.2224-3.86312 30.24273-6.63653a7.83073 7.83073 0 0 1 4.45618-1.36347z"/><path d="m178.69893 392c7.75554 0 11.00112 10.006 4.65587 14.46538a39.64639 39.64639 0 0 1 -8.09479 4.27485c-8.48001 3.38965-19.58001 5.25977-31.26001 5.25977s-22.78-1.87012-31.26-5.25977a39.64639 39.64639 0 0 1 -8.09479-4.27485c-6.34521-4.45938-3.09968-14.46538 4.65586-14.46538a7.83073 7.83073 0 0 1 4.45618 1.36347c4.02035 2.77341 14.32033 6.63653 30.24275 6.63653s26.2224-3.86312 30.24273-6.63653a7.83073 7.83073 0 0 1 4.45618-1.36347z"/><path d="m178.69893 432c7.75554 0 11.00112 10.006 4.65587 14.46538a39.64639 39.64639 0 0 1 -8.09479 4.27485c-8.48001 3.38965-19.58001 5.25977-31.26001 5.25977s-22.78-1.87012-31.26-5.25977a39.64639 39.64639 0 0 1 -8.09479-4.27485c-6.34521-4.45938-3.09968-14.46538 4.65586-14.46538a7.83073 7.83073 0 0 1 4.45618 1.36347c4.02035 2.77341 14.32033 6.63653 30.24275 6.63653s26.2224-3.86312 30.24273-6.63653a7.83073 7.83073 0 0 1 4.45618-1.36347z"/><path d="m258.69893 432c7.75554 0 11.00112 10.006 4.65587 14.46538a39.64639 39.64639 0 0 1 -8.09479 4.27485c-8.48001 3.38965-19.58001 5.25977-31.26001 5.25977s-22.78-1.87012-31.26-5.25977a39.64639 39.64639 0 0 1 -8.09479-4.27485c-6.34521-4.45938-3.09968-14.46538 4.65586-14.46538a7.83073 7.83073 0 0 1 4.45618 1.36347c4.02035 2.77341 14.32033 6.63653 30.24275 6.63653s26.2224-3.86312 30.24273-6.63653a7.83073 7.83073 0 0 1 4.45618-1.36347z"/><rect height="120" rx="8" width="16" x="96" y="352"/><rect height="80" rx="8" width="16" x="176" y="392"/></g></svg>