<svg id="Layer_1" enable-background="new 0 0 510.01 510.01" height="512" viewBox="0 0 510.01 510.01" width="512" xmlns="http://www.w3.org/2000/svg"><g><path d="m383.876 240.003 50.26 15 39.478-15-69.996-119.995-58.405-49.426-28 47.999 19.898 74.482z" fill="#00b9a0"/><path d="m254.999 5.264-63.653 115.94-.68 17.299 16.126 11.5 24.708 9.167 23.499-9.167h.001l10-72.369-10-72.369h-.001z" fill="#00cb75"/><path d="m255 5.265v144.738l35.667-12.666 16.157-37.678z" fill="#00b9a0"/><path d="m254.999 150.003h-48.207l-4.158 45 52.366 45v.001l10-45.001-10-45z" fill="#ace233"/><path d="m306.824 99.659-51.824 50.344v90l60 10 68.876-10z" fill="#00cb75"/><path d="m449.999 120.003c-7.259 0-52.692 0-60 0-25.212 0-46.548-21.142-44.914-47.809 1.637-26.665 26.07-46.11 52.584-41.536 19.314-34.432 66.58-41.582 95.037-12.593 22.799 23.224 23.165 60.019.527 83.541-11.416 11.862-26.769 18.397-43.234 18.397z" fill="#c0dbf2"/><path d="m158.5 259.503 96.5-19.5v.001-.001l-81.672-152.427-66.944 32.427-70 120z" fill="#00b9a0"/><path d="m119.999 120.003c-7.259 0-52.693 0-60 0-25.364 0-46.542-21.28-44.914-47.81 1.639-26.725 26.118-46.097 52.584-41.535 19.314-34.44 66.583-41.578 95.037-12.593 22.972 23.4 22.997 60.194.527 83.541-11.416 11.862-26.769 18.397-43.234 18.397z" fill="#d7e9fc"/><g><path d="m126.004 323.197 25.724 63.468 53.772 5.505 49.5-17.167 10-67.5-10-67.5c-14.518 0-105.386 0-120 0z" fill="#bcfbff"/><path d="m306.636 392.17 51.637-5.505 27.561-63.661-10.833-83c-14.518 0-105.386 0-120 0v135z" fill="#45f6ff"/><path d="m151.728 386.665c-5.549-19.6-9.866-40.911-12.724-63.468-4.894-38.636-3.857-68.285-4.004-73.908v-9.286c-16.333 0-118.559 0-135 0v15c0 31.093 5.53 61.333 16.123 89.603 10.642 28.4 26.394 54.811 46.781 78.096l47.763-7.699z" fill="#45f6ff"/><path d="m397 412.503-38.728-25.839c5.549-19.6 9.865-40.911 12.723-63.468 4.392-34.662 4.005-58.905 4.005-83.193h135v7.5c-.747 4.443 7.938 94.081-62.685 174.952z" fill="#7dd5f4"/><path d="m255 510.003c71.862 0 141.843-29.751 192.315-87.548-4.703-2.607-8.744-4.846-13.447-7.452-23.243-12.983-49.803-22.179-75.596-28.339z" fill="#69afe7"/><path d="m255 510.003c-71.797 0-141.647-29.68-192.096-87.301 4.626-2.693 8.601-5.006 13.228-7.699 23.244-12.984 49.805-22.18 75.597-28.339z" fill="#7dd5f4"/><path d="m151.728 386.665c8.743 30.879 20.549 57.502 34.542 78.028 19.466 28.555 43.163 45.311 68.73 45.311l10-67.5-10-67.5c-34.033-.001-69.377 3.566-103.272 11.661z" fill="#45f6ff"/><path d="m358.272 386.665c-33.901-8.096-69.248-11.661-103.272-11.661v135c25.566 0 49.264-16.756 68.729-45.311 13.994-20.526 25.8-47.15 34.543-78.028z" fill="#7dd5f4"/></g></g></svg>