<svg height="512" viewBox="0 0 48 58" width="512" xmlns="http://www.w3.org/2000/svg"><g id="Page-1" fill="none" fill-rule="evenodd"><g id="069---Feng-Shui-Book" fill-rule="nonzero" transform="translate(-1)"><path id="Shape" d="m47 0h-41c-2.76142375 0-5 2.23857625-5 5v44c-.00311634.1635861.00356227.327212.02.49.32491085 2.607865 2.56231031 4.5521177 5.19 4.51h40.79c1.1032019-.0032948 1.9967052-.8967981 2-2v-50c-.0032948-1.10320187-.8967981-1.9967052-2-2z" fill="#f9eab0"/><path id="Shape" d="m49 2v39c0 1.1-.9 3-2 3h-41c-2.76142375 0-5 2.2385763-5 5v-44c0-2.76142375 2.23857625-5 5-5h41c1.1032019.0032948 1.9967052.89679813 2 2z" fill="#2fa8cc"/><g fill="#2980ba"><path id="Shape" d="m8 0v2c0 .55228475-.44771525 1-1 1s-1-.44771525-1-1v-2z"/><path id="Shape" d="m7 9c-.55228475 0-1-.44771525-1-1v-2c0-.55228475.44771525-1 1-1s1 .44771525 1 1v2c0 .55228475-.44771525 1-1 1z"/><path id="Shape" d="m49 41v11c-.0032948 1.1032019-.8967981 1.9967052-2 2h-1c-1.66 0-3-2.24-3-5s1.34-5 3-5h1c1.1 0 2-1.9 2-3z"/><path id="Shape" d="m7 15c-.55228475 0-1-.4477153-1-1v-2c0-.5522847.44771525-1 1-1s1 .4477153 1 1v2c0 .5522847-.44771525 1-1 1z"/><path id="Shape" d="m7 21c-.55228475 0-1-.4477153-1-1v-2c0-.5522847.44771525-1 1-1s1 .4477153 1 1v2c0 .5522847-.44771525 1-1 1z"/><path id="Shape" d="m7 27c-.55228475 0-1-.4477153-1-1v-2c0-.5522847.44771525-1 1-1s1 .4477153 1 1v2c0 .5522847-.44771525 1-1 1z"/><path id="Shape" d="m7 33c-.55228475 0-1-.4477153-1-1v-2c0-.5522847.44771525-1 1-1s1 .4477153 1 1v2c0 .5522847-.44771525 1-1 1z"/><path id="Shape" d="m7 39c-.55228475 0-1-.4477153-1-1v-2c0-.5522847.44771525-1 1-1s1 .4477153 1 1v2c0 .5522847-.44771525 1-1 1z"/><path id="Shape" d="m8 42v2h-2v-2c0-.5522847.44771525-1 1-1s1 .4477153 1 1z"/></g><path id="Shape" d="m46 54h-39.79c-2.62768969.0421177-4.86508915-1.902135-5.19-4.51-.01643773-.162788-.02311634-.3264139-.02-.49 0-2.7614237 2.23857625-5 5-5h40c-1.66 0-3 2.24-3 5s1.34 5 3 5z" fill="#f9eab0"/><path id="Shape" d="m11 49h10v8c.0000756.3602062-.193577.692619-.5069584.8702156-.3133815.1775966-.6980603.1729304-1.0070416-.0122156l-2.972-1.783c-.3164363-.1896131-.7115637-.1896131-1.028 0l-2.972 1.783c-.3089813.185146-.6936601.1898122-1.0070416.0122156-.3133814-.1775966-.507034-.5100094-.5069584-.8702156z" fill="#955ba5"/><path id="Shape" d="m25 50h-17c-.55228475 0-1-.4477153-1-1s.44771525-1 1-1h17c.5522847 0 1 .4477153 1 1s-.4477153 1-1 1z" fill="#fac176"/><path id="Shape" d="m38.25 35.55c-7.4581993 5.6333717-18.0657962 4.1860265-23.7421865-3.2394841-5.67639029-7.4255106-4.2903872-18.0412967 3.1021865-23.7605159 3.1655075-2.23023716 7.4387821-2.03693215 10.39.47 1.9024757 1.6150118 2.9991273 3.9844686 2.9991273 6.48s-1.0966516 4.8649882-2.9991273 6.48v.04c-3.4413734 2.9188923-4.0020665 8.0181965-1.2771368 11.6151037 2.7249296 3.5969072 7.7856143 4.4375918 11.5271368 1.9148963z" fill="#35495e"/><path id="Shape" d="m45 22c.0047327 5.2665091-2.4376731 10.236306-6.61 13.45-1.4287159 1.0134896-3.1383261 1.5553906-4.89 1.55-3.5643141-.0003659-6.7498374-2.2244721-7.9783128-5.5703925-1.2284755-3.3459204-.2389526-7.1029207 2.4783128-9.4096075v-.04c3.4413734-2.9188923 4.0020665-8.0181965 1.2771368-11.6151037-2.7249296-3.59690717-7.7856143-4.43759177-11.5271368-1.9148963 5.1420342-3.89767443 12.0482842-4.54585335 17.8257576-1.67301796 5.7774733 2.8728354 9.4287164 8.77070346 9.4242424 15.22301796z" fill="#ecf0f1"/><circle id="Oval" cx="22.5" cy="15.5" fill="#ecf0f1" r="3.5"/><circle id="Oval" cx="33.5" cy="28.5" fill="#35495e" r="3.5"/></g></g></svg>