<?xml version="1.0" encoding="iso-8859-1"?>
<!-- Generator: Adobe Illustrator 19.0.0, SVG Export Plug-In . SVG Version: 6.00 Build 0)  -->
<svg version="1.1" id="Layer_1" xmlns="http://www.w3.org/2000/svg" xmlns:xlink="http://www.w3.org/1999/xlink" x="0px" y="0px"
	 viewBox="0 0 512 512" style="enable-background:new 0 0 512 512;" xml:space="preserve">
<circle style="fill:#F0F0F1;" cx="391.995" cy="119.999" r="71.999"/>
<g>
	<path style="fill:#38C7C2;" d="M360.995,103.999h-1c-4.418,0-8-3.582-8-8s3.582-8,8-8h1c4.418,0,8,3.582,8,8
		S365.413,103.999,360.995,103.999z"/>
	<path style="fill:#38C7C2;" d="M392.995,103.999h-1c-4.418,0-8-3.582-8-8s3.582-8,8-8h1c4.418,0,8,3.582,8,8
		S397.413,103.999,392.995,103.999z"/>
	<path style="fill:#38C7C2;" d="M424.994,103.999h-1c-4.418,0-8-3.582-8-8s3.582-8,8-8h1c4.418,0,8,3.582,8,8
		S429.412,103.999,424.994,103.999z"/>
	<path style="fill:#38C7C2;" d="M392.995,79.999h-1c-4.418,0-8-3.582-8-8s3.582-8,8-8h1c4.418,0,8,3.582,8,8
		S397.413,79.999,392.995,79.999z"/>
	<path style="fill:#38C7C2;" d="M360.995,127.999h-1c-4.418,0-8-3.582-8-8s3.582-8,8-8h1c4.418,0,8,3.582,8,8
		S365.413,127.999,360.995,127.999z"/>
	<path style="fill:#38C7C2;" d="M392.995,127.999h-1c-4.418,0-8-3.582-8-8s3.582-8,8-8h1c4.418,0,8,3.582,8,8
		S397.413,127.999,392.995,127.999z"/>
	<path style="fill:#38C7C2;" d="M424.994,127.999h-1c-4.418,0-8-3.582-8-8s3.582-8,8-8h1c4.418,0,8,3.582,8,8
		S429.412,127.999,424.994,127.999z"/>
	<path style="fill:#38C7C2;" d="M360.995,151.998h-1c-4.418,0-8-3.582-8-8s3.582-8,8-8h1c4.418,0,8,3.582,8,8
		S365.413,151.998,360.995,151.998z"/>
	<path style="fill:#38C7C2;" d="M392.995,151.998h-1c-4.418,0-8-3.582-8-8s3.582-8,8-8h1c4.418,0,8,3.582,8,8
		S397.413,151.998,392.995,151.998z"/>
	<path style="fill:#38C7C2;" d="M424.994,151.998h-1c-4.418,0-8-3.582-8-8s3.582-8,8-8h1c4.418,0,8,3.582,8,8
		S429.412,151.998,424.994,151.998z"/>
	<path style="fill:#38C7C2;" d="M392.995,175.998h-1c-4.418,0-8-3.582-8-8s3.582-8,8-8h1c4.418,0,8,3.582,8,8
		S397.413,175.998,392.995,175.998z"/>
</g>
<path style="fill:#F0F0F1;" d="M506.604,441.266c-8.77-46.695-27.513-85.487-54.204-112.178
	c-26.693-26.693-65.483-45.436-112.18-54.205c-35.003-6.574-61.887-5.322-63.013-5.264c-4.104,0.206-7.384,3.486-7.59,7.589
	c-0.057,1.127-1.309,28.012,5.265,63.013c8.77,46.695,27.514,85.487,54.205,112.178c26.692,26.693,65.483,45.436,112.179,54.205
	c24.961,4.688,45.791,5.395,56.099,5.395c1.833,0,3.666-0.02,5.498-0.076c1.022-0.032,2.047-0.044,3.043-0.304
	c3.337-0.872,5.79-3.896,5.963-7.339C511.926,503.153,513.178,476.269,506.604,441.266z"/>
<path style="fill:#E1E0E4;" d="M457.26,493.115c-46.695-8.769-85.487-27.513-112.179-54.205
	c-26.692-26.693-45.436-65.483-54.205-112.178c-4.869-25.929-5.444-47.39-5.392-57.239c-4.969-0.029-7.919,0.109-8.276,0.127
	c-4.104,0.206-7.384,3.486-7.59,7.589c-0.057,1.127-1.309,28.012,5.265,63.013c8.77,46.695,27.514,85.487,54.205,112.178
	c26.692,26.693,65.483,45.436,112.179,54.205c24.961,4.688,45.791,5.395,56.099,5.395c1.833,0,3.666-0.02,5.498-0.076
	c1.022-0.032,2.047-0.044,3.043-0.304c3.337-0.872,5.79-3.896,5.963-7.339c0.015-0.292,0.109-2.328,0.127-5.775
	C501.285,498.443,481.17,497.606,457.26,493.115z"/>
<path style="fill:#F2821C;" d="M504.782,432.335c-9.399-42.714-27.412-78.275-52.382-103.247
	c-24.454-24.453-59.064-42.228-100.6-51.781c-2.62,39.947-34.548,71.875-74.495,74.495c9.554,41.535,27.33,76.146,51.782,100.599
	c24.971,24.971,60.532,42.984,103.247,52.383C435.768,466.359,466.359,435.77,504.782,432.335z"/>
<path style="fill:#E57712;" d="M295.802,348.363c-5.903,1.838-12.095,3.019-18.497,3.439c9.554,41.535,27.33,76.146,51.782,100.599
	c24.971,24.971,60.532,42.984,103.247,52.383c0.512-5.729,1.641-11.278,3.296-16.594c-37.079-9.999-68.096-26.826-90.549-49.279
	C322.628,416.457,305.801,385.441,295.802,348.363z"/>
<path style="fill:#FCDE76;" d="M460.525,450.771c-0.368-1.228-1.035-2.385-2.005-3.354l-28.284-28.284l5.657-5.657
	c3.124-3.124,3.124-8.189,0-11.313c-3.124-3.124-8.188-3.124-11.314,0l-5.657,5.657l-16.971-16.97l5.657-5.657
	c3.124-3.124,3.124-8.189,0-11.313c-3.125-3.124-8.189-3.124-11.314,0l-5.656,5.656l-16.97-16.97l5.657-5.657
	c3.124-3.124,3.124-8.189,0-11.313c-3.125-3.124-8.189-3.124-11.314,0l-5.656,5.656l-28.284-28.284
	c-0.084-0.084-0.174-0.156-0.261-0.236c-3.386,4.121-7.177,7.893-11.311,11.265c0.086,0.095,0.166,0.193,0.257,0.285l28.285,28.285
	l-5.657,5.657c-3.124,3.124-3.124,8.189,0,11.313c1.563,1.563,3.609,2.343,5.657,2.343c2.047,0,4.095-0.781,5.657-2.343l5.656-5.656
	l16.97,16.97l-5.657,5.657c-3.124,3.124-3.124,8.189,0,11.313c1.563,1.563,3.609,2.343,5.657,2.343c2.047,0,4.095-0.781,5.657-2.343
	l5.656-5.656l16.97,16.97l-5.657,5.657c-3.124,3.124-3.124,8.189,0,11.313c1.563,1.563,3.609,2.343,5.657,2.343
	c2.047,0,4.095-0.781,5.657-2.343l5.656-5.656l28.284,28.284c0.979,0.978,2.147,1.65,3.386,2.015
	C453.607,457.138,456.929,453.797,460.525,450.771z"/>
<circle style="fill:#4CCBCD;" cx="119.998" cy="391.995" r="71.999"/>
<g>
	<path style="fill:#F0F0F1;" d="M172.501,441.237c-0.094-0.098-0.182-0.2-0.282-0.295c-11.105-10.507-17.221-24.694-17.221-39.947
		c0-19.07,9.674-36.509,25.877-46.649c0.12-0.075,0.229-0.16,0.344-0.24c-2.836-4.572-6.167-8.802-9.922-12.616
		c-20.247,13.178-32.299,35.32-32.299,59.505c0,19.266,7.569,37.197,21.313,50.662C164.758,448.647,168.838,445.14,172.501,441.237z
		"/>
	<path style="fill:#F0F0F1;" d="M100.999,400.995c0-24.185-12.052-46.328-32.299-59.505c-3.755,3.814-7.086,8.044-9.922,12.616
		c0.115,0.08,0.224,0.165,0.344,0.24c16.203,10.141,25.877,27.58,25.877,46.649c0,15.254-6.116,29.441-17.221,39.947
		c-0.1,0.095-0.188,0.197-0.282,0.295c3.662,3.903,7.743,7.409,12.19,10.42C93.43,438.193,100.999,420.261,100.999,400.995z"/>
	<circle style="fill:#F0F0F1;" cx="135.998" cy="135.999" r="135.998"/>
</g>
<path style="fill:#E1E0E4;" d="M159.998,255.997C84.888,255.997,24,195.109,24,119.999c0-42.047,19.086-79.634,49.062-104.581
	C29.639,38.13,0,83.599,0,135.999c0,75.11,60.888,135.998,135.998,135.998c33.063,0,63.365-11.802,86.936-31.418
	C204.113,250.423,182.708,255.997,159.998,255.997z"/>
<g>
	<path style="fill:#A5A2AE;" d="M135.998,91.999c-2.209,0-4-1.791-4-4V32c0-2.209,1.791-4,4-4s4,1.791,4,4v55.999
		C139.998,90.208,138.207,91.999,135.998,91.999z"/>
	<path style="fill:#A5A2AE;" d="M90.35,125.167c-0.41,0-0.826-0.063-1.237-0.197l-53.259-17.305
		c-2.101-0.683-3.251-2.939-2.568-5.04c0.684-2.102,2.94-3.249,5.041-2.568l53.259,17.305c2.101,0.683,3.251,2.939,2.568,5.04
		C93.603,124.093,92.035,125.167,90.35,125.167z"/>
	<path style="fill:#A5A2AE;" d="M74.866,224.135c-0.815,0-1.639-0.249-2.349-0.765c-1.787-1.298-2.183-3.8-0.885-5.587
		l32.916-45.304c1.3-1.787,3.803-2.182,5.588-0.885c1.787,1.298,2.183,3.8,0.885,5.587l-32.916,45.304
		C77.322,223.563,76.103,224.135,74.866,224.135z"/>
	<path style="fill:#A5A2AE;" d="M197.13,224.135c-1.236,0-2.456-0.572-3.239-1.649l-32.916-45.304
		c-1.298-1.787-0.902-4.289,0.885-5.587c1.787-1.297,4.288-0.902,5.588,0.885l32.916,45.304c1.298,1.787,0.902,4.289-0.885,5.587
		C198.768,223.887,197.945,224.135,197.13,224.135z"/>
	<path style="fill:#A5A2AE;" d="M181.647,125.167c-1.686,0-3.254-1.075-3.804-2.765c-0.683-2.101,0.468-4.357,2.568-5.04
		l53.259-17.305c2.104-0.681,4.357,0.467,5.041,2.568c0.683,2.101-0.468,4.357-2.568,5.04l-53.259,17.305
		C182.473,125.104,182.057,125.167,181.647,125.167z"/>
</g>
<g>
	<path style="fill:#878493;" d="M175.69,178.196l16-55.999c0.955-3.345-0.36-6.924-3.255-8.854l-47.999-32
		c-2.688-1.792-6.188-1.792-8.875,0l-47.999,32c-2.895,1.93-4.21,5.509-3.255,8.854l16,55.999c0.981,3.435,4.12,5.802,7.692,5.802
		h63.999C171.57,183.998,174.709,181.631,175.69,178.196z"/>
	<path style="fill:#878493;" d="M135.998,40c1.547,0,3.094-0.448,4.438-1.344l44.413-29.609
		c-15.163-5.838-31.632-9.047-48.851-9.047s-33.689,3.208-48.85,9.047l44.413,29.609C132.904,39.553,134.451,40,135.998,40z"/>
	<path style="fill:#878493;" d="M44.791,101.698L30.367,50.346C11.383,73.73,0,103.533,0,135.999c0,2.419,0.066,4.822,0.19,7.209
		l41.858-33.07C44.582,108.137,45.664,104.807,44.791,101.698z"/>
	<path style="fill:#878493;" d="M75.191,212.142l-53.311-2.151c18.093,27.847,46.098,48.652,79.018,57.423l-18.526-50.056
		C81.251,214.33,78.419,212.273,75.191,212.142z"/>
	<path style="fill:#878493;" d="M189.624,217.359l-18.526,50.056c32.92-8.771,60.925-29.577,79.018-57.423l-53.311,2.151
		C193.577,212.273,190.745,214.33,189.624,217.359z"/>
</g>
<g>
	<path style="fill:#787485;" d="M34.916,66.54l-4.549-16.194C11.383,73.73,0,103.533,0,135.999c0,2.419,0.066,4.822,0.19,7.209
		l23.886-18.87c-0.045-1.441-0.076-2.886-0.076-4.339C24,101.019,27.893,82.95,34.916,66.54z"/>
	<path style="fill:#787485;" d="M59.388,211.505l-37.508-1.513c18.093,27.847,46.098,48.652,79.018,57.423l-11.54-31.182
		C78.214,229.446,68.124,221.104,59.388,211.505z"/>
	<path style="fill:#787485;" d="M171.099,267.415c19.29-5.139,36.887-14.416,51.796-26.815
		c-14.42,7.536-30.358,12.559-47.237,14.495L171.099,267.415z"/>
</g>
<path style="fill:#878493;" d="M241.63,50.346l-14.425,51.352c-0.873,3.109,0.209,6.439,2.743,8.441l41.858,33.07
	c0.125-2.388,0.19-4.791,0.19-7.209C271.996,103.533,260.613,73.73,241.63,50.346z"/>
<g>
</g>
<g>
</g>
<g>
</g>
<g>
</g>
<g>
</g>
<g>
</g>
<g>
</g>
<g>
</g>
<g>
</g>
<g>
</g>
<g>
</g>
<g>
</g>
<g>
</g>
<g>
</g>
<g>
</g>
</svg>
